<svg width="58" height="58" viewBox="0 0 58 58" fill="none" xmlns="http://www.w3.org/2000/svg">
<circle cx="29" cy="29" r="29" fill="white"/>
<path d="M41 29C41 35.6274 35.6274 41 29 41M41 29C41 22.3726 35.6274 17 29 17M41 29H17M29 41C22.3726 41 17 35.6274 17 29M29 41C29 41 34.3333 37 34.3333 29C34.3333 21 29 17 29 17M29 41C29 41 23.6667 37 23.6667 29C23.6667 21 29 17 29 17M17 29C17 22.3726 22.3726 17 29 17" stroke="black" stroke-width="1.5"/>
<path d="M41 29C41 35.6274 35.6274 41 29 41M41 29C41 22.3726 35.6274 17 29 17M41 29H17M29 41C22.3726 41 17 35.6274 17 29M29 41C29 41 34.3333 37 34.3333 29C34.3333 21 29 17 29 17M29 41C29 41 23.6667 37 23.6667 29C23.6667 21 29 17 29 17M17 29C17 22.3726 22.3726 17 29 17" stroke="black" stroke-opacity="0.2" stroke-width="1.5"/>
</svg>
