<svg width="58" height="58" viewBox="0 0 58 58" fill="none" xmlns="http://www.w3.org/2000/svg">
<circle cx="29" cy="29" r="29" fill="white"/>
<path d="M20 38H34M27 38L24 30L27.5 25.5M33.7652 22.4757L32.3275 21.0854C31.1365 19.9336 29.2372 19.9654 28.0855 21.1565C26.9337 22.3475 26.9655 24.2468 28.1566 25.3985L29.5943 26.7888M29.5973 26.7889L30.016 30.6715L37.6626 22.764L33.7682 22.4757M37.1213 27.707C37.2142 27.7999 37.2878 27.9101 37.3381 28.0315C37.3883 28.1528 37.4142 28.2828 37.4142 28.4141C37.4142 28.5455 37.3883 28.6755 37.3381 28.7968C37.2878 28.9182 37.2142 29.0284 37.1213 29.1213C37.0285 29.2141 36.9182 29.2878 36.7969 29.338C36.6756 29.3883 36.5455 29.4141 36.4142 29.4141C36.2829 29.4141 36.1529 29.3883 36.0315 29.338C35.9102 29.2878 35.8 29.2141 35.7071 29.1213L37.1213 27.707Z" stroke="black" stroke-width="2" stroke-linecap="round" stroke-linejoin="round"/>
<path d="M20 38H34M27 38L24 30L27.5 25.5M33.7652 22.4757L32.3275 21.0854C31.1365 19.9336 29.2372 19.9654 28.0855 21.1565C26.9337 22.3475 26.9655 24.2468 28.1566 25.3985L29.5943 26.7888M29.5973 26.7889L30.016 30.6715L37.6626 22.764L33.7682 22.4757M37.1213 27.707C37.2142 27.7999 37.2878 27.9101 37.3381 28.0315C37.3883 28.1528 37.4142 28.2828 37.4142 28.4141C37.4142 28.5455 37.3883 28.6755 37.3381 28.7968C37.2878 28.9182 37.2142 29.0284 37.1213 29.1213C37.0285 29.2141 36.9182 29.2878 36.7969 29.338C36.6756 29.3883 36.5455 29.4141 36.4142 29.4141C36.2829 29.4141 36.1529 29.3883 36.0315 29.338C35.9102 29.2878 35.8 29.2141 35.7071 29.1213L37.1213 27.707Z" stroke="black" stroke-opacity="0.2" stroke-width="2" stroke-linecap="round" stroke-linejoin="round"/>
</svg>
