<svg width="58" height="58" viewBox="0 0 58 58" fill="none" xmlns="http://www.w3.org/2000/svg">
<circle cx="29" cy="29" r="29" fill="white"/>
<path d="M19.6667 23.6667V35.6667M25 23.6667V35.6667M33 23.6667V35.6667M38.3333 23.6667V35.6667M41 41V39.9333C41 38.4399 41 37.6931 40.7094 37.1227C40.4537 36.6209 40.0457 36.213 39.544 35.9573C38.9735 35.6667 38.2268 35.6667 36.7333 35.6667H21.2667C19.7732 35.6667 19.0265 35.6667 18.456 35.9573C17.9543 36.213 17.5463 36.6209 17.2906 37.1227C17 37.6931 17 38.4399 17 39.9333V41H41ZM17 20.3333V23.6667H41V20.3333L29 17L17 20.3333Z" stroke="black" stroke-width="1.5" stroke-linecap="round" stroke-linejoin="round"/>
<path d="M19.6667 23.6667V35.6667M25 23.6667V35.6667M33 23.6667V35.6667M38.3333 23.6667V35.6667M41 41V39.9333C41 38.4399 41 37.6931 40.7094 37.1227C40.4537 36.6209 40.0457 36.213 39.544 35.9573C38.9735 35.6667 38.2268 35.6667 36.7333 35.6667H21.2667C19.7732 35.6667 19.0265 35.6667 18.456 35.9573C17.9543 36.213 17.5463 36.6209 17.2906 37.1227C17 37.6931 17 38.4399 17 39.9333V41H41ZM17 20.3333V23.6667H41V20.3333L29 17L17 20.3333Z" stroke="black" stroke-opacity="0.2" stroke-width="1.5" stroke-linecap="round" stroke-linejoin="round"/>
</svg>
