<svg width="164" height="164" viewBox="0 0 164 164" fill="none" xmlns="http://www.w3.org/2000/svg">
<path d="M136.866 20.8953L102.364 55.3972L108.611 61.644L143.113 27.1421L136.866 20.8953Z" fill="#9F85F3"/>
<path d="M27.1412 20.8945L20.8961 27.1396L55.3821 61.6257L61.6273 55.3805L27.1412 20.8945Z" fill="#9F85F3"/>
<path d="M55.398 102.462L20.8961 136.964L27.1429 143.211L61.6448 108.709L55.398 102.462Z" fill="#9F85F3"/>
<path d="M108.626 102.481L102.381 108.727L136.867 143.213L143.112 136.967L108.626 102.481Z" fill="#9F85F3"/>
<path d="M164 77.5859H118.97C110.336 77.5849 102.057 74.1549 95.9521 68.0502C89.8475 61.9455 86.4174 53.666 86.4164 45.0327V0L77.5859 0V45.0327C77.5854 49.3084 76.7427 53.542 75.106 57.492C73.4692 61.442 71.0704 65.0309 68.0466 68.0537C65.0228 71.0766 61.4332 73.4743 57.4827 75.1098C53.5322 76.7454 49.2983 77.5867 45.0226 77.5859H0L0 86.4172H45.0226C49.2986 86.4168 53.5328 87.2587 57.4834 88.8948C61.4339 90.531 65.0235 92.9294 68.0471 95.9529C71.0706 98.9765 73.469 102.566 75.1052 106.517C76.7413 110.467 77.5832 114.701 77.5828 118.977V164H86.4141V118.977C86.4133 110.343 89.8425 102.062 95.9474 95.9554C102.052 89.8492 110.333 86.4182 118.967 86.4172H164V77.5859Z" fill="#9F85F3"/>
</svg>
