<svg width="330" height="222" viewBox="0 0 330 222" fill="none" xmlns="http://www.w3.org/2000/svg">
<path fill-rule="evenodd" clip-rule="evenodd" d="M329.925 159.658C329.925 155.833 326.829 152.731 323.009 152.731H20.4934C16.6737 152.731 13.5772 155.833 13.5772 159.658C13.5772 163.484 16.6736 166.585 20.4934 166.585H61.0431C64.8629 166.585 67.9594 169.686 67.9594 173.512C67.9594 177.338 64.8629 180.439 61.0431 180.439H52.9319C49.1122 180.439 46.0157 183.54 46.0157 187.366C46.0157 191.191 49.1122 194.293 52.9319 194.293H77.0036C80.8234 194.293 83.9199 197.394 83.9199 201.219C83.9199 205.045 80.8234 208.146 77.0036 208.146H66.2323C62.4126 208.146 59.3161 211.248 59.3161 215.073C59.3161 218.899 62.4126 222 66.2323 222H230.981C234.801 222 237.898 218.899 237.898 215.073C237.898 211.248 234.801 208.146 230.981 208.146H194.527C190.707 208.146 187.611 205.045 187.611 201.219C187.611 197.394 190.707 194.293 194.527 194.293H301.47C305.289 194.293 308.386 191.191 308.386 187.366C308.386 183.54 305.289 180.439 301.47 180.439H265.69C261.871 180.439 258.774 177.338 258.774 173.512C258.774 169.686 261.871 166.585 265.69 166.585H323.009C326.829 166.585 329.925 163.484 329.925 159.658ZM106.101 208.146C102.282 208.146 99.1851 205.045 99.1851 201.219C99.1851 197.394 102.282 194.293 106.101 194.293H128.823C132.643 194.293 135.739 197.394 135.739 201.219C135.739 205.045 132.643 208.146 128.823 208.146H106.101Z" fill="#E8DEFF"/>
<path d="M246.484 215.073C246.484 211.248 249.581 208.146 253.401 208.146H286.318C290.137 208.146 293.234 211.248 293.234 215.073C293.234 218.899 290.137 222 286.318 222H253.401C249.581 222 246.484 218.899 246.484 215.073Z" fill="#E8DEFF"/>
<path d="M30.6049 187.366C30.6049 183.54 27.5084 180.439 23.6887 180.439H6.99081C3.17109 180.439 0.074585 183.54 0.074585 187.366C0.074585 191.191 3.17108 194.293 6.99081 194.293H23.6887C27.5084 194.293 30.6049 191.191 30.6049 187.366Z" fill="#E8DEFF"/>
<rect x="80.8597" y="76.5782" width="83.296" height="91.6256" fill="#9F85F3"/>
<path d="M80.8598 76.5782H164.156L141.249 51.5894H57.9534L80.8598 76.5782Z" fill="#7F65D1"/>
<path d="M80.8597 76.5782V106.773H50.6649L80.8597 76.5782Z" fill="#7F65D1"/>
<rect x="164.156" y="76.5782" width="95.7904" height="91.6256" fill="#7F65D1"/>
<path d="M164.156 76.5782H259.946L280.77 116.144H184.98L164.156 76.5782Z" fill="#9F85F3"/>
<path d="M164.156 76.5782H259.946L280.77 57.8366H184.98L164.156 76.5782Z" fill="#E8DEFF"/>
<rect x="93.2673" y="94.1924" width="42.6024" height="10.6506" fill="#7F65D1"/>
<path d="M63.9782 14.6343L81.2342 30.8852" stroke="#9F85F3" stroke-width="2" stroke-linecap="round"/>
<path d="M98.0491 1L102.271 21.6318" stroke="#9F85F3" stroke-width="2" stroke-linecap="round"/>
<path d="M267.779 14.6343L250.523 30.8852" stroke="#9F85F3" stroke-width="2" stroke-linecap="round"/>
<path d="M233.708 1L229.486 21.6318" stroke="#9F85F3" stroke-width="2" stroke-linecap="round"/>
</svg>
