<svg id="Group_17" data-name="Group 17" xmlns="http://www.w3.org/2000/svg" width="33.964" height="33.964" viewBox="0 0 33.964 33.964">
  <rect id="Rectangle_1" data-name="Rectangle 1" width="10.105" height="1.829" transform="translate(21.198 11.472) rotate(-45)" fill="#fff"/>
  <rect id="Rectangle_2" data-name="Rectangle 2" width="1.829" height="10.1" transform="translate(4.327 5.62) rotate(-45)" fill="#fff"/>
  <rect id="Rectangle_3" data-name="Rectangle 3" width="10.105" height="1.829" transform="translate(4.327 28.364) rotate(-45)" fill="#fff"/>
  <rect id="Rectangle_4" data-name="Rectangle 4" width="1.829" height="10.1" transform="translate(21.202 22.516) rotate(-45)" fill="#fff"/>
  <g id="Group_2" data-name="Group 2" transform="translate(0 0)">
    <g id="Group_18" data-name="Group 18">
      <path id="Path_1" data-name="Path 1" d="M33.964,16.067H24.638A6.742,6.742,0,0,1,17.9,9.326V0H16.067V9.326a6.742,6.742,0,0,1-6.743,6.741H0V17.9H9.324a6.742,6.742,0,0,1,6.743,6.743v9.324H17.9V24.639A6.742,6.742,0,0,1,24.638,17.9h9.326Z" fill="#fff"/>
    </g>
  </g>
</svg>
