<svg id="Group_238" data-name="Group 238" xmlns="http://www.w3.org/2000/svg" xmlns:xlink="http://www.w3.org/1999/xlink" width="442.382" height="443" viewBox="0 0 442.382 443">
  <defs>
    <clipPath id="clip-path">
      <rect id="Rectangle_2233" data-name="Rectangle 2233" width="442.382" height="443" fill="#9f85f3"/>
    </clipPath>
    <clipPath id="clip-path-3">
      <rect id="Rectangle_2231" data-name="Rectangle 2231" width="290.013" height="416.171" fill="#9f85f3"/>
    </clipPath>
  </defs>
  <g id="Group_243" data-name="Group 243" clip-path="url(#clip-path)">
    <g id="Group_242" data-name="Group 242">
      <g id="Group_241" data-name="Group 241" clip-path="url(#clip-path)">
        <path id="Path_460" data-name="Path 460" d="M313.527,433.15c-22.746,0-42.562-7.44-61.725-14.634l-.6-.226c-2.646-.992-5.343-1.975-8.2-3.014-16.479-6-35.156-12.8-56.831-26.3C136.3,358.223,77.769,299.743,47.005,249.931a266.081,266.081,0,0,1-24.2-50.958l-.017-.047-.014-.047c-.7-2.147-2.9-8.013-5.225-14.222-2.136-5.7-4.344-11.6-5.815-15.724-1.087-3.059-2.515-7.723-4.246-13.868-4.3-15.269-5.66-29.5-4.15-43.517C4.924,96.821,9.656,82.357,17.8,67.328l.016-.026A149.138,149.138,0,0,1,32.26,45.35l.081-.1,7.488-7.907.119-.1a37.447,37.447,0,0,1,10.03-6.561c8.367-3.675,29.076-9.22,41.3-9.22a29.274,29.274,0,0,1,3.827.226c4.409.567,6.993,2.308,10.617,7.163a119.539,119.539,0,0,1,10.012,17.176c.59,1.013,2.894,4.939,6.044,10.305,19.061,32.472,31.942,54.482,32.85,56.358A22.333,22.333,0,0,1,157,122.409c0,4.841-3,10.348-9.169,16.838a144.948,144.948,0,0,1-18.253,16.2A156.036,156.036,0,0,0,112.9,169.737c-.7.669-1.423,1.358-2.181,2.078-4.731,4.982-5.635,7.764-5.713,9.065.545,2.374,5.651,14.789,7.379,17.579,2.511,4.053,3.166,5.149,3.432,5.67,29.819,53.7,62.386,86.245,116.11,116.016,3.037,1.51,20.206,9.742,23.393,10.783,1.375-.132,4.2-1.154,9.107-5.885l7.058-7.471c.653-.774,6.376-7.552,9.111-11.226a144.537,144.537,0,0,1,16.189-18.286c6.493-6.166,11.99-9.163,16.808-9.166a22.293,22.293,0,0,1,9.746,2.367c1.853.9,23.719,13.669,55.983,32.572,5.576,3.268,9.655,5.657,10.693,6.26a132.346,132.346,0,0,1,15.876,9.041c4.3,2.995,6.722,5.552,7.605,8.034,1.749,4.23,1.439,12.35-.921,24.138-1.865,9.316-4.741,19.173-7.164,24.557a36.984,36.984,0,0,1-6.352,9.8l-.1.12-7.859,7.524-.1.084a148.451,148.451,0,0,1-22.155,14.649l-.031.017c-18.724,10.158-36.807,15.1-55.278,15.1Z" transform="translate(0.806 6.301)" fill="#9f85f3"/>
        <path id="Path_461" data-name="Path 461" d="M92.079,25.812a25.622,25.622,0,0,1,3.356.2c3.047.392,4.9,1.288,8.244,5.768a117.871,117.871,0,0,1,9.732,16.741c2.1,3.631,37.474,63.737,38.824,66.522a18.8,18.8,0,0,1,2.018,8.182q0,5.759-8.194,14.388a140.587,140.587,0,0,1-17.8,15.8c-9.3,6.966-13.066,10.838-19.243,16.7-4.5,4.721-6.762,8.642-6.759,11.77,0,1.718,5.9,16,7.917,19.253s3.119,5.062,3.309,5.458c30.392,54.758,63.39,87.474,117.6,117.5.378.191,23,11.2,24.724,11.206q4.752,0,11.952-6.952l7.181-7.6s6.321-7.455,9.312-11.472a140.293,140.293,0,0,1,15.789-17.836q8.627-8.193,14.363-8.187h0a18.714,18.714,0,0,1,8.2,2.013c2.774,1.34,62.906,36.663,66.54,38.764q20.132,10.04,21.848,15.219c3.329,7.688-3.55,36.1-8.025,46.01a33.29,33.29,0,0,1-5.771,8.88l-7.649,7.323a144.308,144.308,0,0,1-21.621,14.284c-19.83,10.758-37.416,14.667-53.587,14.667-22.337,0-41.974-7.462-61.082-14.634-17.8-6.679-39.286-13.356-64.4-29-49.621-30.6-107.757-88.9-138.017-137.9a261.124,261.124,0,0,1-23.879-50.291c-1.371-4.191-7.965-21.326-11.07-30.033q-1.576-4.442-4.173-13.64C3.64,126.27,5.671,99.441,21.729,69.827A145.044,145.044,0,0,1,35.812,48.4L43.1,40.7a33.936,33.936,0,0,1,9.084-5.961c8.415-3.7,28.59-8.931,39.892-8.931m0-7.1v0c-7.658,0-17.482,2.045-22.657,3.265a127.8,127.8,0,0,0-20.041,6.244,40.942,40.942,0,0,0-10.975,7.16l-.238.21-.217.23-7.29,7.7-.179.188-.163.2a152.692,152.692,0,0,0-14.8,22.478l-.014.027-.014.027C7.119,81.885,2.254,96.779.616,111.974-.943,126.447.451,141.12,4.878,156.833c1.753,6.22,3.2,10.96,4.316,14.088v.01c1.481,4.153,3.695,10.062,5.834,15.777,2.211,5.9,4.5,12,5.176,14.08l.031.094.032.092a269.559,269.559,0,0,0,24.537,51.649c31.023,50.218,90.026,109.171,140.308,140.184a240.068,240.068,0,0,0,30.953,16.25c9.57,4.189,18.576,7.467,26.521,10.358,2.847,1.037,5.538,2.017,8.168,3l.605.228c19.459,7.305,39.581,14.859,62.97,14.859,19.079,0,37.714-5.079,56.971-15.526l.031-.017.031-.017a151.974,151.974,0,0,0,22.691-15.014l.2-.167.189-.181,7.649-7.323.23-.221.21-.239a40.562,40.562,0,0,0,6.931-10.713c2.517-5.612,5.481-15.749,7.389-25.277a107.9,107.9,0,0,0,1.99-14.079c.335-5.3-.057-9.134-1.234-12.03-1.172-3.22-3.931-6.217-8.89-9.671a133.305,133.305,0,0,0-16.219-9.253c-1.16-.675-5.153-3.014-10.555-6.18-39.8-23.317-54.521-31.881-56.267-32.724a25.781,25.781,0,0,0-11.282-2.719,20.3,20.3,0,0,0-9.974,2.977,48.841,48.841,0,0,0-9.278,7.162,148.043,148.043,0,0,0-16.594,18.741c-2.6,3.494-8.031,9.938-8.912,10.979l-6.934,7.34c-3.393,3.259-5.427,4.331-6.347,4.682-4.385-1.754-18.23-8.37-21.988-10.228-53.024-29.4-85.178-61.529-114.62-114.535-.317-.612-.972-1.71-3.55-5.873-1.383-2.234-5.684-12.564-6.753-15.893.264-.793,1.212-2.816,4.581-6.375.736-.7,1.439-1.37,2.12-2.021a151.469,151.469,0,0,1,16.357-14.017A148.534,148.534,0,0,0,151.2,142.5a48.675,48.675,0,0,0,7.178-9.3,20.317,20.317,0,0,0,2.972-9.986,25.866,25.866,0,0,0-2.727-11.273c-.854-1.763-9.489-16.582-33-56.63-3.053-5.2-5.309-9.046-5.969-10.177a122.464,122.464,0,0,0-10.286-17.6c-4.2-5.622-7.6-7.864-13.009-8.564a32.851,32.851,0,0,0-4.282-.256" transform="translate(0 5.496)" fill="#9f85f3"/>
        <g id="Group_240" data-name="Group 240" transform="translate(0 24.212)" style="mix-blend-mode: multiply;isolation: isolate">
          <g id="Group_239" data-name="Group 239">
            <g id="Group_238-2" data-name="Group 238" clip-path="url(#clip-path-3)">
              <path id="Path_462" data-name="Path 462" d="M286.432,433.546l-.605-.228c-2.63-.987-5.321-1.965-8.168-3-7.946-2.891-16.951-6.169-26.521-10.36a239.9,239.9,0,0,1-30.953-16.248C169.9,372.695,110.9,313.742,79.876,263.524A269.561,269.561,0,0,1,55.34,211.875l-.032-.092-.031-.094c-.679-2.076-2.965-8.178-5.176-14.081-2.14-5.714-4.353-11.625-5.834-15.776v-.01c-1.111-3.129-2.563-7.869-4.316-14.089-4.427-15.711-5.821-30.384-4.263-44.857,1.638-15.2,6.5-30.089,14.877-45.53l.014-.027.014-.027a152.692,152.692,0,0,1,14.8-22.478l.163-.2.179-.188,7.29-7.7.217-.23.238-.21a40.981,40.981,0,0,1,10.975-7.162,127.818,127.818,0,0,1,20.041-6.243c1.95-.459,4.561-1.036,7.468-1.577q-1.345-2.1-2.591-3.768c-4.2-5.622-7.6-7.864-13.009-8.564a32.837,32.837,0,0,0-4.282-.256c-7.657,0-17.482,2.045-22.657,3.265a127.644,127.644,0,0,0-20.04,6.244A40.928,40.928,0,0,0,38.4,35.386l-.237.21-.219.23-7.29,7.7-.177.188-.164.2a152.694,152.694,0,0,0-14.8,22.478l-.016.027-.014.027C7.118,81.885,2.252,96.779.616,111.974-.943,126.447.45,141.12,4.877,156.831c1.753,6.221,3.206,10.96,4.316,14.089v.005l0,.005c1.48,4.151,3.693,10.062,5.834,15.777,2.21,5.9,4.5,12,5.176,14.08l.03.094.034.092a269.557,269.557,0,0,0,24.535,51.649c31.023,50.218,90.026,109.171,140.308,140.184a239.9,239.9,0,0,0,30.953,16.248c9.57,4.19,18.576,7.468,26.521,10.36,2.849,1.037,5.539,2.017,8.168,3l.605.228c12.391,4.652,25.05,9.4,38.652,12.242q-1.795-.669-3.581-1.342" transform="translate(0 -18.716)" fill="#9f85f3"/>
            </g>
          </g>
        </g>
        <path id="Path_464" data-name="Path 464" d="M179.652,103.064a9.039,9.039,0,0,1,2.247.285,105.662,105.662,0,0,1,27.279,11.257,113.491,113.491,0,0,1,23.246,18.134,127.218,127.218,0,0,1,30.751,52.033,9.054,9.054,0,1,1-17.31,5.316c-10.63-34.613-36.857-61.128-68.447-69.2a9.056,9.056,0,0,1,2.234-17.829m0-7.1h0a16.151,16.151,0,0,0-3.99,31.8c29.209,7.46,53.511,32.138,63.42,64.4a16.15,16.15,0,0,0,30.877-9.482A134.354,134.354,0,0,0,237.47,127.75a120.642,120.642,0,0,0-24.7-19.266,112.731,112.731,0,0,0-29.112-12.012,16.171,16.171,0,0,0-4-.5" transform="translate(48.014 28.181)" fill="#9f85f3"/>
        <path id="Path_465" data-name="Path 465" d="M324.028,229.309a12.605,12.605,0,0,1-3.7.558" transform="translate(45.175 14.639)" fill="#9f85f3"/>
        <path id="Path_466" data-name="Path 466" d="M167.244,54.206a9.039,9.039,0,0,1,2.247.285,207.545,207.545,0,0,1,53.6,22.127,223.613,223.613,0,0,1,45.821,35.749,243.046,243.046,0,0,1,36.17,47.023,259.462,259.462,0,0,1,24.7,56.02,9.054,9.054,0,1,1-17.31,5.317c-11.5-37.46-31.573-70.523-57.373-96.323-25.381-25.381-56.3-43.738-90.095-52.368a9.056,9.056,0,0,1,2.234-17.829m0-7.1a16.152,16.152,0,0,0-3.99,31.8c31.913,8.15,61.94,25.617,86.832,50.511,25.425,25.424,44.654,57.717,55.609,93.387a16.15,16.15,0,0,0,30.877-9.482,266.645,266.645,0,0,0-25.379-57.553,250.191,250.191,0,0,0-37.23-48.4A230.706,230.706,0,0,0,226.685,70.5a214.658,214.658,0,0,0-55.438-22.881,16.171,16.171,0,0,0-4-.5" transform="translate(44.369 13.834)" fill="#9f85f3"/>
        <path id="Path_468" data-name="Path 468" d="M157.085,7.1a9.038,9.038,0,0,1,2.247.285,302.766,302.766,0,0,1,78.213,32.286,326.627,326.627,0,0,1,66.923,52.216,355.285,355.285,0,0,1,52.883,68.752,379.584,379.584,0,0,1,36.142,81.971,9.054,9.054,0,1,1-17.31,5.316c-17.235-56.125-47.315-105.667-86-144.347-38.11-38.111-84.563-65.681-135.335-78.649A9.056,9.056,0,0,1,157.085,7.1m0-7.1h0a16.152,16.152,0,0,0-3.99,31.8c48.573,12.406,94.242,38.961,132.074,76.79C323.693,147.114,352.819,196.014,369.4,250a16.15,16.15,0,0,0,30.877-9.482,386.821,386.821,0,0,0-36.82-83.5,362.509,362.509,0,0,0-53.944-70.126,333.735,333.735,0,0,0-68.38-53.346A309.862,309.862,0,0,0,161.087.506a16.172,16.172,0,0,0-4-.506" transform="translate(41.387)" fill="#9f85f3"/>
      </g>
    </g>
  </g>
</svg>
