<svg width="18" height="18" viewBox="0 0 18 18" fill="none" xmlns="http://www.w3.org/2000/svg">
<path d="M10.1507 11.9432L14 11.2245V6.31267C14 6.31267 12.3357 5.41064 11.1765 5.0201C9.92628 4.59891 8.5 5 7.57609 6M7.57609 6C6.17954 6.17266 4 6.44212 4 6.44212V11.3054C4.74502 12.337 6.50326 14.3118 7.57609 13.9581C8.64892 13.6044 10.1092 12.0423 10.7052 11.3054C11.5992 9.97907 10.394 8.79475 9.5 8.5L8.0231 9.09483C5.95469 9.09483 6.5 7 7.57609 6ZM2 6H2.4C2.96005 6 3.24008 6 3.45399 6.10899C3.64215 6.20487 3.79513 6.35785 3.89101 6.54601C4 6.75992 4 7.03995 4 7.6V10.4C4 10.9601 4 11.2401 3.89101 11.454C3.79513 11.6422 3.64215 11.7951 3.45399 11.891C3.24008 12 2.96005 12 2.4 12H2M16 6L15.5845 6.00402C15.0294 6.00939 14.7518 6.01207 14.54 6.12181C14.3537 6.21835 14.2024 6.37106 14.1077 6.55832C14 6.77118 14 7.04876 14 7.60394V10.3844C14 10.9494 14 11.2319 14.1103 11.4469C14.2073 11.6359 14.3621 11.7892 14.5521 11.8843C14.7681 11.9926 15.0505 11.9898 15.6155 11.9844L16 11.9807M4.2 17H13.8C14.9201 17 15.4802 17 15.908 16.782C16.2843 16.5903 16.5903 16.2843 16.782 15.908C17 15.4802 17 14.9201 17 13.8V4.2C17 3.0799 17 2.51984 16.782 2.09202C16.5903 1.71569 16.2843 1.40973 15.908 1.21799C15.4802 1 14.9201 1 13.8 1H4.2C3.0799 1 2.51984 1 2.09202 1.21799C1.71569 1.40973 1.40973 1.71569 1.21799 2.09202C1 2.51984 1 3.07989 1 4.2V13.8C1 14.9201 1 15.4802 1.21799 15.908C1.40973 16.2843 1.71569 16.5903 2.09202 16.782C2.51984 17 3.07989 17 4.2 17Z" stroke="#C9C5CA" stroke-width="1.5" stroke-linecap="round" stroke-linejoin="round"/>
</svg>
